<?xml version="1.0" encoding="UTF-8" standalone="no"?>
<svg
   xmlns:dc="http://purl.org/dc/elements/1.1/"
   xmlns:cc="http://creativecommons.org/ns#"
   xmlns:rdf="http://www.w3.org/1999/02/22-rdf-syntax-ns#"
   xmlns:svg="http://www.w3.org/2000/svg"
   xmlns="http://www.w3.org/2000/svg"
   xmlns:sodipodi="http://sodipodi.sourceforge.net/DTD/sodipodi-0.dtd"
   xmlns:inkscape="http://www.inkscape.org/namespaces/inkscape"
   version="1.1"
   x="0px"
   y="0px"
   width="512px"
   height="512px"
   viewBox="0 0 512 512"
   enable-background="new 0 0 512 512"
   xml:space="preserve"
   id="shape"
   inkscape:version="0.48.2 r9819"
   sodipodi:docname="add.svg"><metadata
   id="metadata9"><rdf:RDF><cc:Work
       rdf:about=""><dc:format>image/svg+xml</dc:format><dc:type
         rdf:resource="http://purl.org/dc/dcmitype/StillImage" /><dc:title /></cc:Work></rdf:RDF></metadata><defs
   id="defs7" /><sodipodi:namedview
   pagecolor="#ffffff"
   bordercolor="#666666"
   borderopacity="1"
   objecttolerance="10"
   gridtolerance="10"
   guidetolerance="10"
   inkscape:pageopacity="0"
   inkscape:pageshadow="2"
   id="namedview5"
   showgrid="false"
   inkscape:zoom="0.92187499"
   inkscape:cx="210.60915"
   inkscape:cy="267.63097"
   inkscape:window-width="1354"
   inkscape:window-height="728"
   inkscape:window-x="1973"
   inkscape:window-y="202"
   inkscape:window-maximized="0"
   inkscape:current-layer="shape" />

    <path
   d="m 256.8986,9.0515029 c -136.21291,0 -246.64338,110.4304671 -246.64338,246.6433871 0,136.21292 110.43046,246.64339 246.64338,246.64339 136.21293,0 246.64339,-110.43047 246.64339,-246.64339 0,-136.21292 -110.43046,-246.6433871 -246.64339,-246.6433871 z m 131.54314,268.1027571 -104.89243,0 0,110.08377 c -30.05402,-0.13648 -19.54731,0.14963 -49.78224,0 l -0.55741,-110.08377 -108.41161,0 c -0.14289,-28.93924 0.40705,-14.91336 0.55738,-42.91875 l 108.4116,0 0,-110.08376 c 33.11964,-0.14289 16.48169,0.12842 49.78224,0 l 0,110.08376 104.89244,0 c 0.42159,26.9884 0.14963,14.35598 0,42.91875 z"
   id="shape"
   inkscape:connector-curvature="0" />
</svg>