<?xml version="1.0" encoding="UTF-8" standalone="no"?>
<svg
   xmlns:dc="http://purl.org/dc/elements/1.1/"
   xmlns:cc="http://creativecommons.org/ns#"
   xmlns:rdf="http://www.w3.org/1999/02/22-rdf-syntax-ns#"
   xmlns:svg="http://www.w3.org/2000/svg"
   xmlns="http://www.w3.org/2000/svg"
   xmlns:sodipodi="http://sodipodi.sourceforge.net/DTD/sodipodi-0.dtd"
   xmlns:inkscape="http://www.inkscape.org/namespaces/inkscape"
   version="1.1"
   x="0px"
   y="0px"
   width="512px"
   height="512px"
   viewBox="0 0 512 512"
   enable-background="new 0 0 512 512"
   xml:space="preserve"
   id="shape"
   inkscape:version="0.48.2 r9819"
   sodipodi:docname="application.svg"><metadata
   id="metadata9"><rdf:RDF><cc:Work
       rdf:about=""><dc:format>image/svg+xml</dc:format><dc:type
         rdf:resource="http://purl.org/dc/dcmitype/StillImage" /><dc:title /></cc:Work></rdf:RDF></metadata><defs
   id="defs7" /><sodipodi:namedview
   pagecolor="#ffffff"
   bordercolor="#666666"
   borderopacity="1"
   objecttolerance="10"
   gridtolerance="10"
   guidetolerance="10"
   inkscape:pageopacity="0"
   inkscape:pageshadow="2"
   id="namedview5"
   showgrid="false"
   inkscape:zoom="0.92187499"
   inkscape:cx="210.60915"
   inkscape:cy="267.63097"
   inkscape:window-width="1354"
   inkscape:window-height="728"
   inkscape:window-x="1973"
   inkscape:window-y="202"
   inkscape:window-maximized="0"
   inkscape:current-layer="shape" />

    <path
   d="m 38.836668,23.777964 c -31.1663571,0 -31.1663571,0 -31.1663571,31.166357 l 0,62.332719 0,218.1645 0,31.16635 0,93.49908 c 0,31.16636 0,31.16636 31.1663571,31.16636 l 436.329002,0 c 31.16635,0 31.16635,0 31.16635,-31.16636 l 0,-342.82993 0,-62.332719 c 0,-31.166357 0,-31.166357 -31.16635,-31.166357 l -436.329002,0 z m 0,62.332714 436.329002,0 0,373.996292 -436.329002,0 0,-373.996292 z m 35.549127,31.166362 c -4.431192,-0.0795 -4.421819,-0.17109 -4.38277,4.38277 0,43.82769 0,92.03815 0,135.86584 l 171.414965,0 0,-140.24861 -155.831787,0 -11.200408,0 z m 198.198555,0 0,140.24861 171.41496,0 0,-140.24861 -171.41496,0 z m -202.581325,171.41497 0,140.2486 171.414965,0 0,-140.2486 -171.414965,0 z m 202.581325,0 0,140.2486 171.41496,0 0,-140.2486 -171.41496,0 z"
   id="shape"
   inkscape:connector-curvature="0" />
</svg>