<?xml version="1.0" encoding="UTF-8" standalone="no"?>
<svg
   xmlns:dc="http://purl.org/dc/elements/1.1/"
   xmlns:cc="http://creativecommons.org/ns#"
   xmlns:rdf="http://www.w3.org/1999/02/22-rdf-syntax-ns#"
   xmlns:svg="http://www.w3.org/2000/svg"
   xmlns="http://www.w3.org/2000/svg"
   xmlns:sodipodi="http://sodipodi.sourceforge.net/DTD/sodipodi-0.dtd"
   xmlns:inkscape="http://www.inkscape.org/namespaces/inkscape"
   version="1.1"
   x="0px"
   y="0px"
   width="512px"
   height="512px"
   viewBox="0 0 512 512"
   enable-background="new 0 0 512 512"
   xml:space="preserve"
   id="shape"
   inkscape:version="0.48.2 r9819"
   sodipodi:docname="calculator.svg"><metadata
   id="metadata9"><rdf:RDF><cc:Work
       rdf:about=""><dc:format>image/svg+xml</dc:format><dc:type
         rdf:resource="http://purl.org/dc/dcmitype/StillImage" /><dc:title /></cc:Work></rdf:RDF></metadata><defs
   id="defs7" /><sodipodi:namedview
   pagecolor="#ffffff"
   bordercolor="#666666"
   borderopacity="1"
   objecttolerance="10"
   gridtolerance="10"
   guidetolerance="10"
   inkscape:pageopacity="0"
   inkscape:pageshadow="2"
   id="namedview5"
   showgrid="false"
   inkscape:zoom="0.92187499"
   inkscape:cx="210.60915"
   inkscape:cy="267.63097"
   inkscape:window-width="1354"
   inkscape:window-height="728"
   inkscape:window-x="1973"
   inkscape:window-y="202"
   inkscape:window-maximized="0"
   inkscape:current-layer="shape" />

    <path
   d="M 263.46875 13.96875 C 193.18607 14.027699 154.77951 14.46875 73.3125 14.46875 L 73.3125 495.03125 L 440.5625 495.03125 L 440.5625 14.46875 C 359.32202 14.015853 305.63837 13.933372 263.46875 13.96875 z M 127.625 67.9375 L 379.875 67.9375 C 386.07011 67.9375 391.0625 72.867403 391.0625 79.0625 L 391.0625 157.375 C 391.0625 163.5701 386.07011 168.5625 379.875 168.5625 L 127.625 168.5625 C 121.4299 168.5625 116.4375 163.5701 116.4375 157.375 L 116.4375 79.0625 C 116.4375 72.867403 121.4299 67.9375 127.625 67.9375 z M 118.90625 194.28125 L 174.90625 194.28125 L 174.90625 235.28125 L 118.90625 235.28125 L 118.90625 194.28125 z M 190.1875 194.28125 L 246.15625 194.28125 L 246.15625 235.28125 L 190.1875 235.28125 L 190.1875 194.28125 z M 261.46875 194.28125 L 317.4375 194.28125 L 317.4375 235.28125 L 261.46875 235.28125 L 261.46875 194.28125 z M 332.71875 194.28125 L 388.71875 194.28125 L 388.71875 235.28125 L 332.71875 235.28125 L 332.71875 194.28125 z M 145.59375 250.8125 C 161.12096 250.8125 173.71875 263.37903 173.71875 278.90625 C 173.71875 294.43347 161.12096 307.0625 145.59375 307.0625 C 130.06652 307.0625 117.5 294.43347 117.5 278.90625 C 117.5 263.37903 130.06652 250.8125 145.59375 250.8125 z M 216.84375 250.8125 C 232.37097 250.8125 245 263.37903 245 278.90625 C 245 294.43347 232.37097 307.0625 216.84375 307.0625 C 201.31653 307.0625 188.75 294.43347 188.75 278.90625 C 188.75 263.37903 201.31653 250.8125 216.84375 250.8125 z M 288.125 250.8125 C 303.65223 250.8125 316.28125 263.37903 316.28125 278.90625 C 316.28125 294.43347 303.65223 307.0625 288.125 307.0625 C 272.59778 307.0625 260.03125 294.43347 260.03125 278.90625 C 260.03125 263.37903 272.59778 250.8125 288.125 250.8125 z M 332.71875 258.3125 L 388.71875 258.3125 L 388.71875 299.3125 L 332.71875 299.3125 L 332.71875 258.3125 z M 145.59375 322.09375 C 161.12096 322.09375 173.71875 334.66027 173.71875 350.1875 C 173.71875 365.71472 161.12096 378.34375 145.59375 378.34375 C 130.06652 378.34375 117.5 365.71472 117.5 350.1875 C 117.5 334.66027 130.06652 322.09375 145.59375 322.09375 z M 216.84375 322.09375 C 232.37097 322.09375 245 334.66027 245 350.1875 C 245 365.71472 232.37097 378.34375 216.84375 378.34375 C 201.31653 378.34375 188.75 365.71472 188.75 350.1875 C 188.75 334.66027 201.31653 322.09375 216.84375 322.09375 z M 288.125 322.09375 C 303.65223 322.09375 316.28125 334.66027 316.28125 350.1875 C 316.28125 365.71472 303.65223 378.34375 288.125 378.34375 C 272.59778 378.34375 260.03125 365.71472 260.03125 350.1875 C 260.03125 334.66027 272.59778 322.09375 288.125 322.09375 z M 332.71875 328.8125 L 388.71875 328.8125 L 388.71875 369.84375 L 332.71875 369.84375 L 332.71875 328.8125 z M 145.59375 393.375 C 161.12096 393.375 173.71875 405.94153 173.71875 421.46875 C 173.71875 436.99598 161.12096 449.625 145.59375 449.625 C 130.06652 449.625 117.5 436.99598 117.5 421.46875 C 117.5 405.94153 130.06652 393.375 145.59375 393.375 z M 216.84375 393.375 C 232.37097 393.375 245 405.94153 245 421.46875 C 245 436.99598 232.37097 449.625 216.84375 449.625 C 201.31653 449.625 188.75 436.99598 188.75 421.46875 C 188.75 405.94153 201.31653 393.375 216.84375 393.375 z M 288.125 393.375 C 303.65223 393.375 316.28125 405.94153 316.28125 421.46875 C 316.28125 436.99598 303.65223 449.625 288.125 449.625 C 272.59778 449.625 260.03125 436.99598 260.03125 421.46875 C 260.03125 405.94153 272.59778 393.375 288.125 393.375 z M 332.71875 398.09375 L 388.71875 398.09375 L 388.71875 447.03125 L 332.71875 447.03125 L 332.71875 398.09375 z "
   id="shape" />
</svg>