<?xml version="1.0" encoding="UTF-8" standalone="no"?>
<svg
   xmlns:dc="http://purl.org/dc/elements/1.1/"
   xmlns:cc="http://creativecommons.org/ns#"
   xmlns:rdf="http://www.w3.org/1999/02/22-rdf-syntax-ns#"
   xmlns:svg="http://www.w3.org/2000/svg"
   xmlns="http://www.w3.org/2000/svg"
   xmlns:sodipodi="http://sodipodi.sourceforge.net/DTD/sodipodi-0.dtd"
   xmlns:inkscape="http://www.inkscape.org/namespaces/inkscape"
   version="1.1"
   x="0px"
   y="0px"
   width="512px"
   height="512px"
   viewBox="0 0 512 512"
   enable-background="new 0 0 512 512"
   xml:space="preserve"
   id="shape"
   inkscape:version="0.48.2 r9819"
   sodipodi:docname="check-none.svg"><metadata
   id="metadata9"><rdf:RDF><cc:Work
       rdf:about=""><dc:format>image/svg+xml</dc:format><dc:type
         rdf:resource="http://purl.org/dc/dcmitype/StillImage" /><dc:title /></cc:Work></rdf:RDF></metadata><defs
   id="defs7" /><sodipodi:namedview
   pagecolor="#ffffff"
   bordercolor="#666666"
   borderopacity="1"
   objecttolerance="10"
   gridtolerance="10"
   guidetolerance="10"
   inkscape:pageopacity="0"
   inkscape:pageshadow="2"
   id="namedview5"
   showgrid="false"
   inkscape:zoom="0.92187499"
   inkscape:cx="210.60915"
   inkscape:cy="267.63097"
   inkscape:window-width="1354"
   inkscape:window-height="728"
   inkscape:window-x="1973"
   inkscape:window-y="202"
   inkscape:window-maximized="0"
   inkscape:current-layer="shape" />

    
<path
   d="M 439.9375 35.8125 L 286.90625 188.84375 L 220.625 122.53125 L 171.46875 171.6875 L 286.90625 287.15625 L 489.09375 84.9375 L 439.9375 35.8125 z M 440.375 46.4375 L 478.9375 84.96875 L 285.875 276.125 L 181.15625 171.78125 L 219.6875 133.21875 L 285.875 199.03125 L 440.375 46.4375 z M 256.9375 47.15625 C 139.56131 47.15625 44.40625 142.28339 44.40625 259.65625 C 44.40625 377.03022 139.56131 472.1885 256.9375 472.1875 C 380.48036 472.1875 476.89749 367.56404 469.03125 246.09375 L 416.75 298.375 C 402.34377 358.08312 355.35733 405.08188 295.65625 419.5 C 283.23602 422.49955 270.27942 424.09375 256.9375 424.09375 C 166.12736 424.09375 92.5 350.46529 92.5 259.65625 C 92.5 168.84499 166.12736 95.25 256.9375 95.25 C 288.04488 95.25 317.13254 103.89457 341.9375 118.90625 L 376.71875 84.125 C 342.61269 60.808756 301.37399 47.15625 256.9375 47.15625 z M 439.9375 155.8125 L 286.90625 308.84375 L 220.625 242.53125 L 171.46875 291.6875 L 286.90625 407.15625 L 489.09375 204.9375 L 439.9375 155.8125 z M 440.375 166.4375 L 478.9375 204.96875 L 285.875 396.125 L 181.15625 291.78125 L 219.6875 253.21875 L 285.875 319.03125 L 440.375 166.4375 z "
   id="path2986" /></svg>