<?xml version="1.0" encoding="UTF-8" standalone="no"?>
<svg
   xmlns:dc="http://purl.org/dc/elements/1.1/"
   xmlns:cc="http://creativecommons.org/ns#"
   xmlns:rdf="http://www.w3.org/1999/02/22-rdf-syntax-ns#"
   xmlns:svg="http://www.w3.org/2000/svg"
   xmlns="http://www.w3.org/2000/svg"
   xmlns:sodipodi="http://sodipodi.sourceforge.net/DTD/sodipodi-0.dtd"
   xmlns:inkscape="http://www.inkscape.org/namespaces/inkscape"
   version="1.1"
   x="0px"
   y="0px"
   width="512px"
   height="512px"
   viewBox="0 0 512 512"
   enable-background="new 0 0 512 512"
   xml:space="preserve"
   id="shape"
   inkscape:version="0.48.2 r9819"
   sodipodi:docname="check-mark.svg"><metadata
   id="metadata9"><rdf:RDF><cc:Work
       rdf:about=""><dc:format>image/svg+xml</dc:format><dc:type
         rdf:resource="http://purl.org/dc/dcmitype/StillImage" /><dc:title /></cc:Work></rdf:RDF></metadata><defs
   id="defs7" /><sodipodi:namedview
   pagecolor="#ffffff"
   bordercolor="#666666"
   borderopacity="1"
   objecttolerance="10"
   gridtolerance="10"
   guidetolerance="10"
   inkscape:pageopacity="0"
   inkscape:pageshadow="2"
   id="namedview5"
   showgrid="false"
   inkscape:zoom="0.92187499"
   inkscape:cx="210.60915"
   inkscape:cy="267.63097"
   inkscape:window-width="1354"
   inkscape:window-height="728"
   inkscape:window-x="1973"
   inkscape:window-y="202"
   inkscape:window-maximized="0"
   inkscape:current-layer="shape" />

    <path
   d="M 431.18,227.567 C 448.474,343.287 358.951,446.644 242.647,446.644 137.355,446.645 52,361.291 52,256.001 52,150.712 137.355,65.355 242.647,65.355 c 46.292,0 88.727,16.504 121.751,43.943 l -30.676,30.677 c -25.078,-19.711 -56.704,-31.471 -91.076,-31.471 -81.461,0 -147.497,66.034 -147.497,147.496 0,81.46 66.036,147.494 147.497,147.494 77.052,0 140.295,-59.09 146.911,-134.425 L 431.18,227.567 z M 412.771,101.666 253.343,261.092 184.288,192.018 133.08,243.234 253.345,363.533 464,152.861 412.771,101.666 z"
   id="shape"
   inkscape:connector-curvature="0" />
</svg>