<?xml version="1.0" encoding="UTF-8" standalone="no"?>
<svg
   xmlns:dc="http://purl.org/dc/elements/1.1/"
   xmlns:cc="http://creativecommons.org/ns#"
   xmlns:rdf="http://www.w3.org/1999/02/22-rdf-syntax-ns#"
   xmlns:svg="http://www.w3.org/2000/svg"
   xmlns="http://www.w3.org/2000/svg"
   xmlns:sodipodi="http://sodipodi.sourceforge.net/DTD/sodipodi-0.dtd"
   xmlns:inkscape="http://www.inkscape.org/namespaces/inkscape"
   version="1.1"
   x="0px"
   y="0px"
   width="512px"
   height="512px"
   viewBox="0 0 512 512"
   enable-background="new 0 0 512 512"
   xml:space="preserve"
   id="shape"
   inkscape:version="0.48.2 r9819"
   sodipodi:docname="config.svg"><metadata
   id="metadata9"><rdf:RDF><cc:Work
       rdf:about=""><dc:format>image/svg+xml</dc:format><dc:type
         rdf:resource="http://purl.org/dc/dcmitype/StillImage" /><dc:title /></cc:Work></rdf:RDF></metadata><defs
   id="defs7" /><sodipodi:namedview
   pagecolor="#ffffff"
   bordercolor="#666666"
   borderopacity="1"
   objecttolerance="10"
   gridtolerance="10"
   guidetolerance="10"
   inkscape:pageopacity="0"
   inkscape:pageshadow="2"
   id="namedview5"
   showgrid="false"
   inkscape:zoom="0.92187499"
   inkscape:cx="210.60915"
   inkscape:cy="267.63097"
   inkscape:window-width="1354"
   inkscape:window-height="728"
   inkscape:window-x="1973"
   inkscape:window-y="202"
   inkscape:window-maximized="0"
   inkscape:current-layer="shape" />

  <g
   id="g4"
   transform="matrix(15.716384,0,0,15.716384,4.567232,5.075707)">
    <path
   d="m 0.848,26.91 c -1.172,1.172 -1.172,3.07 0,4.242 0.586,0.586 1.354,0.878 2.122,0.878 0.768,0 1.536,-0.292 2.122,-0.878 l 9.85,-9.85 -4.244,-4.242 -9.85,9.85 z M 25.466,8.654 29.752,6.436 32,2.094 29.906,0 l -4.342,2.248 -2.218,4.286 -5.224,5.224 2.12,2.12 z M 26.404,20.04 C 26.268,20.032 26.138,20 26,20 c -0.732,0 -1.426,0.15 -2.074,0.39 L 11.61,8.074 C 11.85,7.426 12,6.732 12,6 12,5.862 11.968,5.732 11.96,5.596 11.748,2.474 9.176,0 6,0 5.076,0 4.21,0.226 3.428,0.6 l 3.986,3.986 c 0.21,0.21 0.354,0.458 0.45,0.72 0.262,0.71 0.12,1.536 -0.45,2.108 C 7.024,7.804 6.512,8 6,8 5.764,8 5.53,7.948 5.306,7.864 5.044,7.766 4.796,7.624 4.586,7.414 L 0.6,3.428 C 0.226,4.21 0,5.076 0,6 0,9.176 2.474,11.748 5.596,11.96 5.732,11.968 5.862,12 6,12 6.732,12 7.426,11.85 8.074,11.61 L 20.39,23.926 C 20.15,24.574 20,25.268 20,26 c 0,0.138 0.032,0.268 0.04,0.404 C 20.252,29.526 22.824,32 26,32 c 0.924,0 1.79,-0.226 2.572,-0.6 l -3.986,-3.986 c -0.21,-0.21 -0.354,-0.458 -0.45,-0.72 -0.262,-0.71 -0.12,-1.536 0.45,-2.108 C 24.976,24.196 25.488,24 26,24 c 0.236,0 0.47,0.052 0.694,0.136 0.262,0.098 0.51,0.24 0.72,0.45 L 31.4,28.572 C 31.774,27.79 32,26.924 32,26 32,22.824 29.526,20.252 26.404,20.04 z"
   id="shape"
   inkscape:connector-curvature="0" />
  </g>
</svg>