<?xml version="1.0" encoding="UTF-8" standalone="no"?>
<svg
   xmlns:dc="http://purl.org/dc/elements/1.1/"
   xmlns:cc="http://creativecommons.org/ns#"
   xmlns:rdf="http://www.w3.org/1999/02/22-rdf-syntax-ns#"
   xmlns:svg="http://www.w3.org/2000/svg"
   xmlns="http://www.w3.org/2000/svg"
   xmlns:sodipodi="http://sodipodi.sourceforge.net/DTD/sodipodi-0.dtd"
   xmlns:inkscape="http://www.inkscape.org/namespaces/inkscape"
   version="1.1"
   x="0px"
   y="0px"
   width="512px"
   height="512px"
   viewBox="0 0 512 512"
   enable-background="new 0 0 512 512"
   xml:space="preserve"
   id="shape"
   inkscape:version="0.48.2 r9819"
   sodipodi:docname="connection.svg"><metadata
   id="metadata9"><rdf:RDF><cc:Work
       rdf:about=""><dc:format>image/svg+xml</dc:format><dc:type
         rdf:resource="http://purl.org/dc/dcmitype/StillImage" /><dc:title /></cc:Work></rdf:RDF></metadata><defs
   id="defs7" /><sodipodi:namedview
   pagecolor="#ffffff"
   bordercolor="#666666"
   borderopacity="1"
   objecttolerance="10"
   gridtolerance="10"
   guidetolerance="10"
   inkscape:pageopacity="0"
   inkscape:pageshadow="2"
   id="namedview5"
   showgrid="false"
   inkscape:zoom="0.92187499"
   inkscape:cx="210.60915"
   inkscape:cy="267.63097"
   inkscape:window-width="1354"
   inkscape:window-height="728"
   inkscape:window-x="1973"
   inkscape:window-y="202"
   inkscape:window-maximized="0"
   inkscape:current-layer="shape" />

<path
   d="M 409 17.21875 C 396.59615 17.31323 384.00269 20.251446 372.21875 26.3125 C 348.78132 40.805434 334.31549 58.564281 329.3125 83.53125 C 328.4117 105.80323 328.25679 105.9713 307.625 118.40625 L 183.90625 182.0625 C 166.04147 189.77111 166.04106 189.53936 151.53125 183.78125 C 138.50758 175.71386 121.97635 171.50534 108.25 171.40625 C 63.01881 171.40625 26.34375 208.08131 26.34375 253.3125 C 26.34375 298.54369 63.01881 335.21875 108.25 335.21875 C 123.82285 335.11843 138.78399 330.69967 151.40625 322.90625 C 166.93674 316.30309 166.83035 316.24016 183.78125 324.6875 L 307.625 388.375 C 327.00961 400.41191 325.90441 405.19928 329.3125 423.25 C 336.92136 449.76662 349.61264 468.67114 372.21875 480.46875 C 412.44127 501.15714 461.81161 485.31627 482.5 445.09375 C 503.18843 404.87123 487.37877 355.50088 447.15625 334.8125 C 423.5953 322.95834 393.59427 324.31223 372.21875 334.8125 C 352.85373 347.26167 351.83476 348.79755 331.21875 339.53125 C 289.39102 320.7309 249.85937 298.07813 209.25 277.1875 C 191.03879 266.48122 191.07597 266.54193 190.125 253.3125 C 192.38073 238.72491 192.31174 238.74444 209.4375 229.9375 L 331.21875 167.28125 C 351.29121 157.93659 351.19812 158.15519 372.21875 172 C 396.39652 183.98311 424.39988 183.52555 447.15625 172 C 487.37877 151.31164 503.18843 101.94127 482.5 61.71875 C 468.27673 34.065767 440.50982 17.910987 411.46875 17.25 C 410.64372 17.23122 409.82692 17.21245 409 17.21875 z M 408.1875 63.71875 C 426.52866 63.71875 441.40625 78.596341 441.40625 96.9375 C 441.40625 115.27866 426.52866 130.125 408.1875 130.125 C 389.84634 130.125 374.96875 115.27866 374.96875 96.9375 C 374.96875 78.596341 389.84634 63.71875 408.1875 63.71875 z M 108.1875 217.71875 C 126.52866 217.71875 141.40625 232.59634 141.40625 250.9375 C 141.40625 269.27866 126.52866 284.125 108.1875 284.125 C 89.846341 284.125 74.96875 269.27866 74.96875 250.9375 C 74.96875 232.59634 89.846341 217.71875 108.1875 217.71875 z M 408.1875 375.71875 C 426.52866 375.71875 441.40625 390.59634 441.40625 408.9375 C 441.40625 427.27866 426.52866 442.125 408.1875 442.125 C 389.84634 442.125 374.96875 427.27866 374.96875 408.9375 C 374.96875 390.59634 389.84634 375.71875 408.1875 375.71875 z "
   id="path6" />
</svg>