<?xml version="1.0" encoding="UTF-8" standalone="no"?>
<svg
   xmlns:dc="http://purl.org/dc/elements/1.1/"
   xmlns:cc="http://creativecommons.org/ns#"
   xmlns:rdf="http://www.w3.org/1999/02/22-rdf-syntax-ns#"
   xmlns:svg="http://www.w3.org/2000/svg"
   xmlns="http://www.w3.org/2000/svg"
   xmlns:sodipodi="http://sodipodi.sourceforge.net/DTD/sodipodi-0.dtd"
   xmlns:inkscape="http://www.inkscape.org/namespaces/inkscape"
   version="1.1"
   x="0px"
   y="0px"
   width="512px"
   height="512px"
   viewBox="0 0 512 512"
   enable-background="new 0 0 512 512"
   xml:space="preserve"
   id="shape"
   inkscape:version="0.48.2 r9819"
   sodipodi:docname="copy.svg"><metadata
   id="metadata9"><rdf:RDF><cc:Work
       rdf:about=""><dc:format>image/svg+xml</dc:format><dc:type
         rdf:resource="http://purl.org/dc/dcmitype/StillImage" /><dc:title /></cc:Work></rdf:RDF></metadata><defs
   id="defs7" /><sodipodi:namedview
   pagecolor="#ffffff"
   bordercolor="#666666"
   borderopacity="1"
   objecttolerance="10"
   gridtolerance="10"
   guidetolerance="10"
   inkscape:pageopacity="0"
   inkscape:pageshadow="2"
   id="namedview5"
   showgrid="false"
   inkscape:zoom="0.92187499"
   inkscape:cx="210.60915"
   inkscape:cy="267.63097"
   inkscape:window-width="1354"
   inkscape:window-height="728"
   inkscape:window-x="1973"
   inkscape:window-y="202"
   inkscape:window-maximized="0"
   inkscape:current-layer="shape" />

    <path
   d="m 294.737,264.133 15.38161,-24.40154 21.10824,96.07425 -95.07251,15.51351 15.48698,-24.20954 c 0,0 -92.36139,-101.81087 -128.49246,-180.5716 C 190.48031,206.40934 294.737,264.133 294.737,264.133 z m 65.54,-112.271 0,-101.861 -310.277,0 0,310.137 101.723,0 0,101.861 310.277,0 0,-310.137 z M 422,421.999 l -230.277,0 -1.35593,-138.42924 c -18.76349,-23.85622 -28.93344,-36.21323 -39.18644,-53.01123 l 0.54237,89.57847 -61.723,0 0,-230.136 230.277,0 0,61.861 -154.18898,-1.08475 c 17.40721,14.13607 26.70542,21.23078 43.91047,37.55933 L 422,191.862 z"
   id="shape"
   inkscape:connector-curvature="0" />
</svg>