<?xml version="1.0" encoding="UTF-8" standalone="no"?>
<svg
   xmlns:dc="http://purl.org/dc/elements/1.1/"
   xmlns:cc="http://creativecommons.org/ns#"
   xmlns:rdf="http://www.w3.org/1999/02/22-rdf-syntax-ns#"
   xmlns:svg="http://www.w3.org/2000/svg"
   xmlns="http://www.w3.org/2000/svg"
   xmlns:sodipodi="http://sodipodi.sourceforge.net/DTD/sodipodi-0.dtd"
   xmlns:inkscape="http://www.inkscape.org/namespaces/inkscape"
   version="1.1"
   x="0px"
   y="0px"
   width="512px"
   height="512px"
   viewBox="0 0 512 512"
   enable-background="new 0 0 512 512"
   xml:space="preserve"
   id="shape"
   inkscape:version="0.48.2 r9819"
   sodipodi:docname="form-mini.svg"><metadata
   id="metadata9"><rdf:RDF><cc:Work
       rdf:about=""><dc:format>image/svg+xml</dc:format><dc:type
         rdf:resource="http://purl.org/dc/dcmitype/StillImage" /><dc:title /></cc:Work></rdf:RDF></metadata><defs
   id="defs7" /><sodipodi:namedview
   pagecolor="#ffffff"
   bordercolor="#666666"
   borderopacity="1"
   objecttolerance="10"
   gridtolerance="10"
   guidetolerance="10"
   inkscape:pageopacity="0"
   inkscape:pageshadow="2"
   id="namedview5"
   showgrid="false"
   inkscape:zoom="0.92187499"
   inkscape:cx="210.60915"
   inkscape:cy="267.63097"
   inkscape:window-width="1354"
   inkscape:window-height="728"
   inkscape:window-x="1973"
   inkscape:window-y="202"
   inkscape:window-maximized="0"
   inkscape:current-layer="shape" />

    <path
   d="M 33.5625,40.09375 C 7.9004513,40.208814 7.90625,42.049547 7.90625,71.25 l 0,62.3125 0,218.03125 0,31.125 0,93.4375 c 0,31.14718 -0.0222,31.15625 31.125,31.15625 l 436.0625,0 c 31.1472,0 31.15625,-0.009 31.15625,-31.15625 l 0,-342.59375 0,-62.3125 c 0,-31.147181 -0.009,-31.15625 -31.15625,-31.15625 l -436.0625,0 c -1.946699,0 -3.757947,-0.0077 -5.46875,0 z M 38,120 l 440,0 0,80 -440,0 0,-80 z m 0,130 440,0 0,80 -440,0 0,-80 z m 0,130 440,0 0,80 -440,0 0,-80 z"
   id="shape"
   inkscape:connector-curvature="0" />
</svg>