<?xml version="1.0" encoding="UTF-8" standalone="no"?>
<svg
   xmlns:dc="http://purl.org/dc/elements/1.1/"
   xmlns:cc="http://creativecommons.org/ns#"
   xmlns:rdf="http://www.w3.org/1999/02/22-rdf-syntax-ns#"
   xmlns:svg="http://www.w3.org/2000/svg"
   xmlns="http://www.w3.org/2000/svg"
   xmlns:sodipodi="http://sodipodi.sourceforge.net/DTD/sodipodi-0.dtd"
   xmlns:inkscape="http://www.inkscape.org/namespaces/inkscape"
   version="1.1"
   x="0px"
   y="0px"
   width="512px"
   height="512px"
   viewBox="0 0 512 512"
   enable-background="new 0 0 512 512"
   xml:space="preserve"
   id="shape"
   inkscape:version="0.48.2 r9819"
   sodipodi:docname="help.svg"><metadata
   id="metadata9"><rdf:RDF><cc:Work
       rdf:about=""><dc:format>image/svg+xml</dc:format><dc:type
         rdf:resource="http://purl.org/dc/dcmitype/StillImage" /><dc:title /></cc:Work></rdf:RDF></metadata><defs
   id="defs7" /><sodipodi:namedview
   pagecolor="#ffffff"
   bordercolor="#666666"
   borderopacity="1"
   objecttolerance="10"
   gridtolerance="10"
   guidetolerance="10"
   inkscape:pageopacity="0"
   inkscape:pageshadow="2"
   id="namedview5"
   showgrid="false"
   inkscape:zoom="0.92187499"
   inkscape:cx="210.60915"
   inkscape:cy="267.63097"
   inkscape:window-width="1354"
   inkscape:window-height="728"
   inkscape:window-x="1973"
   inkscape:window-y="202"
   inkscape:window-maximized="0"
   inkscape:current-layer="shape" />

    <path
   d="M 258,48 C 144.229,48 52,140.229 52,254 52,367.771 144.229,460 258,460 371.771,460 464,367.771 464,254 464,140.229 371.771,48 258,48 z m 2.25,342.9 c -16.162,0 -29.27,-13.107 -29.27,-29.275 0,-16.16 13.107,-29.263 29.27,-29.263 16.166,0 29.27,13.103 29.27,29.263 0,16.168 -13.104,29.275 -29.27,29.275 z m 23.012,-86.515 v 5.266 c 0,0 -43.883,0 -48.248,0 v -5.266 c 0,-14.898 2.174,-34.012 19.471,-50.628 17.299,-16.619 38.916,-30.346 38.916,-51.106 0,-22.95 -15.928,-35.09 -36.01,-35.09 -33.463,0 -35.65,34.705 -36.475,42.347 h -46.928 c 1.25,-36.189 16.545,-86.808 83.684,-86.808 58.182,0 84.34,38.967 84.34,75.508 0,58.162 -58.75,68.265 -58.75,105.777 z"
   id="shape"
   inkscape:connector-curvature="0" />
</svg>