<?xml version="1.0" encoding="UTF-8" standalone="no"?>
<svg
   xmlns:dc="http://purl.org/dc/elements/1.1/"
   xmlns:cc="http://creativecommons.org/ns#"
   xmlns:rdf="http://www.w3.org/1999/02/22-rdf-syntax-ns#"
   xmlns:svg="http://www.w3.org/2000/svg"
   xmlns="http://www.w3.org/2000/svg"
   xmlns:sodipodi="http://sodipodi.sourceforge.net/DTD/sodipodi-0.dtd"
   xmlns:inkscape="http://www.inkscape.org/namespaces/inkscape"
   version="1.1"
   x="0px"
   y="0px"
   width="512px"
   height="512px"
   viewBox="0 0 512 512"
   enable-background="new 0 0 512 512"
   xml:space="preserve"
   id="shape"
   inkscape:version="0.48.2 r9819"
   sodipodi:docname="menu.svg"><metadata
   id="metadata9"><rdf:RDF><cc:Work
       rdf:about=""><dc:format>image/svg+xml</dc:format><dc:type
         rdf:resource="http://purl.org/dc/dcmitype/StillImage" /><dc:title /></cc:Work></rdf:RDF></metadata><defs
   id="defs7" /><sodipodi:namedview
   pagecolor="#ffffff"
   bordercolor="#666666"
   borderopacity="1"
   objecttolerance="10"
   gridtolerance="10"
   guidetolerance="10"
   inkscape:pageopacity="0"
   inkscape:pageshadow="2"
   id="namedview5"
   showgrid="false"
   inkscape:zoom="0.92187499"
   inkscape:cx="210.60915"
   inkscape:cy="267.63097"
   inkscape:window-width="1354"
   inkscape:window-height="728"
   inkscape:window-x="1973"
   inkscape:window-y="202"
   inkscape:window-maximized="0"
   inkscape:current-layer="shape" />

    <path
   d="M 88.903048,15.469042 C 69.635811,15.587609 69.65625,17.512056 69.65625,47.86498 l 0,64.72375 0,226.6353 0,32.39594 0,97.11969 c 0,32.37644 0.01958,32.39593 23.402744,32.39593 l 327.365896,0 c 23.38318,0 23.36868,-0.0187 23.36868,-32.39593 l 0,-356.15093 0,-64.72375 c 0,-32.376452 0.014,-32.395938 -23.36868,-32.395938 l -327.365896,0 c -1.461454,0 -2.871456,-0.008 -4.155946,0 z m 340.174382,33.043176 0.34065,111.938012 -344.568782,0 0,-109.723779 344.228132,-2.214233 z m -308.6982,45.851664 0,38.663918 240.84046,0 0,-38.663918 -240.84046,0 z m 1.80545,109.894108 263.63004,0 0,38.66392 -263.63004,0 0,-38.66392 z m -37.335382,84.51559 345.011632,0 0.74943,189.94716 -345.761062,-3.50871 0,-186.43845 z m 39.617742,29.80698 0,38.66393 191.54823,0 0,-38.66393 -191.54823,0 z m -2.99773,90.47699 0,38.66392 225.00018,0 0,-38.66392 -225.00018,0 z"
   id="path2995"
   inkscape:connector-curvature="0" />
</svg>