<?xml version="1.0" encoding="UTF-8" standalone="no"?>
<svg
   xmlns:dc="http://purl.org/dc/elements/1.1/"
   xmlns:cc="http://creativecommons.org/ns#"
   xmlns:rdf="http://www.w3.org/1999/02/22-rdf-syntax-ns#"
   xmlns:svg="http://www.w3.org/2000/svg"
   xmlns="http://www.w3.org/2000/svg"
   xmlns:sodipodi="http://sodipodi.sourceforge.net/DTD/sodipodi-0.dtd"
   xmlns:inkscape="http://www.inkscape.org/namespaces/inkscape"
   version="1.1"
   x="0px"
   y="0px"
   width="512px"
   height="512px"
   viewBox="0 0 512 512"
   enable-background="new 0 0 512 512"
   xml:space="preserve"
   id="shape"
   inkscape:version="0.48.2 r9819"
   sodipodi:docname="permission.svg"><metadata
   id="metadata9"><rdf:RDF><cc:Work
       rdf:about=""><dc:format>image/svg+xml</dc:format><dc:type
         rdf:resource="http://purl.org/dc/dcmitype/StillImage" /><dc:title /></cc:Work></rdf:RDF></metadata><defs
   id="defs7" /><sodipodi:namedview
   pagecolor="#ffffff"
   bordercolor="#666666"
   borderopacity="1"
   objecttolerance="10"
   gridtolerance="10"
   guidetolerance="10"
   inkscape:pageopacity="0"
   inkscape:pageshadow="2"
   id="namedview5"
   showgrid="false"
   inkscape:zoom="0.92187499"
   inkscape:cx="210.60915"
   inkscape:cy="267.63097"
   inkscape:window-width="1354"
   inkscape:window-height="728"
   inkscape:window-x="1973"
   inkscape:window-y="202"
   inkscape:window-maximized="0"
   inkscape:current-layer="shape" />

    <path
   d="m 245.897,272.734 v 57.26 l -20.963,5.074 7.188,29.682 -30.947,7.49 6.771,27.972 -68.732,16.642 -11.539,-47.668 83.734,-135.976 c 8.033,15.878 19.945,29.474 34.488,39.524 z m 19.465,11.128 -0.002,143.459 34.68,34.679 50.004,-50.005 -20.35,-20.35 22.516,-22.513 -21.596,-21.593 21.596,-21.597 V 281.34 c -27.856,13.306 -59.479,13.715 -86.848,2.522 z m 126.963,-98.278 c 0,47.716 -38.682,86.396 -86.396,86.396 -47.715,-0.001 -86.395,-38.68 -86.396,-86.396 0,-43.698 32.455,-79.801 74.57,-85.57 -8.814,-16.991 -26.561,-28.636 -46.99,-28.636 -29.176,0 -52.91,23.736 -52.91,52.912 0,11.773 3.869,22.657 10.398,31.457 -2.471,8.373 -3.938,17.172 -4.24,26.262 -16.795,-13.62 -27.535,-34.412 -27.535,-57.719 0,-41.029 33.26,-74.29 74.287,-74.29 32.504,0 60.113,20.882 70.193,49.957 42.334,5.571 75.019,41.771 75.019,85.627 z m -65.013,-40.487 c 0,-5.831 -2.336,-11.111 -6.115,-14.976 -0.576,8.11 -2.314,15.385 -4.701,20.007 -7.059,1.48 -16.061,-2.845 -19.316,-9.28 1.758,-4.575 2.82,-9.41 2.842,-16.346 -8.979,2.554 -15.562,10.798 -15.564,20.595 0.002,11.836 9.596,21.431 21.43,21.431 11.832,-0.003 21.424,-9.595 21.424,-21.431 z"
   id="shape"
   inkscape:connector-curvature="0" />
</svg>