<?xml version="1.0" encoding="UTF-8" standalone="no"?>
<svg
   xmlns:dc="http://purl.org/dc/elements/1.1/"
   xmlns:cc="http://creativecommons.org/ns#"
   xmlns:rdf="http://www.w3.org/1999/02/22-rdf-syntax-ns#"
   xmlns:svg="http://www.w3.org/2000/svg"
   xmlns="http://www.w3.org/2000/svg"
   xmlns:sodipodi="http://sodipodi.sourceforge.net/DTD/sodipodi-0.dtd"
   xmlns:inkscape="http://www.inkscape.org/namespaces/inkscape"
   version="1.1"
   x="0px"
   y="0px"
   width="512px"
   height="512px"
   viewBox="0 0 512 512"
   enable-background="new 0 0 512 512"
   xml:space="preserve"
   id="shape"
   inkscape:version="0.48.2 r9819"
   sodipodi:docname="relationship.svg"><metadata
   id="metadata9"><rdf:RDF><cc:Work
       rdf:about=""><dc:format>image/svg+xml</dc:format><dc:type
         rdf:resource="http://purl.org/dc/dcmitype/StillImage" /><dc:title /></cc:Work></rdf:RDF></metadata><defs
   id="defs7" /><sodipodi:namedview
   pagecolor="#ffffff"
   bordercolor="#666666"
   borderopacity="1"
   objecttolerance="10"
   gridtolerance="10"
   guidetolerance="10"
   inkscape:pageopacity="0"
   inkscape:pageshadow="2"
   id="namedview5"
   showgrid="false"
   inkscape:zoom="0.92187499"
   inkscape:cx="210.60915"
   inkscape:cy="267.63097"
   inkscape:window-width="1354"
   inkscape:window-height="728"
   inkscape:window-x="1973"
   inkscape:window-y="202"
   inkscape:window-maximized="0"
   inkscape:current-layer="shape" />

    <path
   d="m 17.15625,109.78125 c -7.33497,0.0329 -7.34375,0.5599 -7.34375,8.90625 l 0,17.78125 0,62.34375 0,8.875 0,26.71875 c 0,8.90278 0.00381,8.90625 8.90625,8.90625 l 124.625,0 c 8.90278,0 8.90625,-0.004 8.90625,-8.90625 l 0,-97.9375 0,-17.78125 c 0,-8.90278 -0.004,-8.90625 -8.90625,-8.90625 l -124.625,0 c -0.55643,0 -1.0735,-0.002 -1.5625,0 z m 1.25,22.8125 125.78125,0 0,22.875 -125.78125,0 0,-22.875 z m 184.84375,4.3125 c -22.04647,0.36381 -40.17661,17.96508 -40.9375,40.25 -0.76349,22.3624 16.149,40.9105 37.71875,42.90625 5.07925,0.47023 9.67196,3.15337 12.59375,7.28125 -1.29383,-2.18998 -0.94523,-2.11999 18.6875,28.21875 30.29242,47.5184 32.54211,50.84061 36,55.8125 3.15749,4.58475 3.91858,10.37656 2.0625,15.625 -7.22336,20.42201 2.5619,43.57567 23.1875,52.25 21.21718,8.92314 45.63934,-1.06401 54.5625,-22.28125 11.44069,-27.20332 -8.27539,-57.05367 -37.34375,-57.78125 -5.56194,-0.13957 -10.74989,-2.9806 -13.90625,-7.5625 -2.62056,-4.8861 -4.94274,-8.28559 -35.15625,-54.5625 -9.59743,-15.30232 -14.05214,-22.54223 -16.21875,-26.09375 0.10138,-0.0471 -1.287,-2.24072 -1.625,-2.71875 -1.95572,-4.23007 -2.50178,-8.86649 -0.625,-13.21875 4.41576,-11.04885 3.17389,-28.95499 -3.0625,-38.65625 -6.96914,-11.06677 -19.03424,-18.93405 -33.78125,-19.4375 -0.71887,-0.0245 -1.44507,-0.043 -2.15625,-0.0312 z m 9.375,90.4375 c 0.69265,1.1724 1.85008,2.97676 0.78125,1.15625 -0.23775,-0.40074 -0.51435,-0.77917 -0.78125,-1.15625 z M 18.40625,169.75 l 125.78125,0 0,22.875 -125.78125,0 0,-22.875 z m 0,37.1875 125.78125,0 0,22.84375 -125.78125,0 0,-22.84375 z m 348.75,64.84375 c -7.33497,0.0329 -7.34375,0.5599 -7.34375,8.90625 l 0,17.78125 0,62.34375 0,8.875 0,26.71875 c 0,8.90278 0.004,8.90625 8.90625,8.90625 l 124.625,0 c 8.90278,0 8.90625,-0.004 8.90625,-8.90625 l 0,-97.9375 0,-17.78125 c 0,-8.90278 -0.004,-8.90625 -8.90625,-8.90625 l -124.625,0 c -0.55643,0 -1.0735,-0.002 -1.5625,0 z m 1.25,22.8125 125.78125,0 0,22.875 -125.78125,0 0,-22.875 z m 0,37.15625 125.78125,0 0,22.875 -125.78125,0 0,-22.875 z m 0,37.1875 125.78125,0 0,22.84375 -125.78125,0 0,-22.84375 z"
   id="shape"
   inkscape:connector-curvature="0" />
</svg>