<?xml version="1.0" encoding="UTF-8" standalone="no"?>
<svg
   xmlns:dc="http://purl.org/dc/elements/1.1/"
   xmlns:cc="http://creativecommons.org/ns#"
   xmlns:rdf="http://www.w3.org/1999/02/22-rdf-syntax-ns#"
   xmlns:svg="http://www.w3.org/2000/svg"
   xmlns="http://www.w3.org/2000/svg"
   xmlns:sodipodi="http://sodipodi.sourceforge.net/DTD/sodipodi-0.dtd"
   xmlns:inkscape="http://www.inkscape.org/namespaces/inkscape"
   version="1.1"
   x="0px"
   y="0px"
   width="512px"
   height="512px"
   viewBox="0 0 512 512"
   enable-background="new 0 0 512 512"
   xml:space="preserve"
   id="shape"
   inkscape:version="0.48.2 r9819"
   sodipodi:docname="screen-list.svg"><metadata
   id="metadata9"><rdf:RDF><cc:Work
       rdf:about=""><dc:format>image/svg+xml</dc:format><dc:type
         rdf:resource="http://purl.org/dc/dcmitype/StillImage" /><dc:title /></cc:Work></rdf:RDF></metadata><defs
   id="defs7" /><sodipodi:namedview
   pagecolor="#ffffff"
   bordercolor="#666666"
   borderopacity="1"
   objecttolerance="10"
   gridtolerance="10"
   guidetolerance="10"
   inkscape:pageopacity="0"
   inkscape:pageshadow="2"
   id="namedview5"
   showgrid="false"
   inkscape:zoom="0.92187499"
   inkscape:cx="215.6168"
   inkscape:cy="241.57581"
   inkscape:window-width="1354"
   inkscape:window-height="728"
   inkscape:window-x="1973"
   inkscape:window-y="202"
   inkscape:window-maximized="0"
   inkscape:current-layer="shape" />

    <path
   d="M 37.4375 20 C 6.3970581 20.175067 6.2073531 19.599881 6 52.40625 L 6 114.3125 L 6 336.9375 L 6 365.75 L 6 460.0625 C 6 491.3523 6.5244287 491.5 37.4375 491.5 L 477.5 491.5 C 508.97816 491.5 508.9375 491.72902 508.9375 460.0625 L 508.9375 114.3125 L 508.9375 52.40625 C 509.12199 19.998615 509.34939 20.261882 477.5 20 L 37.4375 20 z M 36.3125 86.71875 L 483.875 87.65625 L 481.75 462.1875 L 34.25 461.125 L 36.3125 86.71875 z M 65.5 163.375 C 60.20907 163.375 55.96875 167.61532 55.96875 172.90625 L 55.96875 214.5625 C 55.96875 219.85343 60.20907 224.09375 65.5 224.09375 L 139.90625 224.09375 L 139.90625 163.375 L 65.5 163.375 z M 170.25 163.375 L 170.25 224.09375 L 271.90625 224.09375 L 271.90625 163.375 L 170.25 163.375 z M 302.25 163.375 L 302.25 224.09375 L 371.90625 224.09375 L 371.90625 163.375 L 302.25 163.375 z M 402.25 163.375 L 402.25 224.09375 L 449.9375 224.09375 C 455.22843 224.09375 459.5 219.85343 459.5 214.5625 L 459.5 172.90625 C 459.5 167.61532 455.22843 163.375 449.9375 163.375 L 402.25 163.375 z M 60.5625 251.375 C 57.97631 251.63607 55.96875 253.81148 55.96875 256.46875 L 55.96875 278.78125 C 55.96875 281.61567 58.22808 283.90625 61.0625 283.90625 L 139.90625 283.90625 L 139.90625 251.375 L 61.0625 251.375 C 60.88535 251.375 60.73491 251.3576 60.5625 251.375 z M 170.25 251.375 L 170.25 283.90625 L 271.90625 283.90625 L 271.90625 251.375 L 170.25 251.375 z M 302.25 251.375 L 302.25 283.90625 L 371.90625 283.90625 L 371.90625 251.375 L 302.25 251.375 z M 402.25 251.375 L 402.25 283.90625 L 454.375 283.90625 C 457.20942 283.90625 459.5 281.61567 459.5 278.78125 L 459.5 256.46875 C 459.5 253.63433 457.20942 251.375 454.375 251.375 L 402.25 251.375 z M 60.5625 311.375 C 57.97631 311.63607 55.96875 313.81148 55.96875 316.46875 L 55.96875 338.78125 C 55.96875 341.61567 58.22808 343.90625 61.0625 343.90625 L 139.90625 343.90625 L 139.90625 311.375 L 61.0625 311.375 C 60.88535 311.375 60.73491 311.3576 60.5625 311.375 z M 170.25 311.375 L 170.25 343.90625 L 271.90625 343.90625 L 271.90625 311.375 L 170.25 311.375 z M 302.25 311.375 L 302.25 343.90625 L 371.90625 343.90625 L 371.90625 311.375 L 302.25 311.375 z M 402.25 311.375 L 402.25 343.90625 L 454.375 343.90625 C 457.20942 343.90625 459.5 341.61567 459.5 338.78125 L 459.5 316.46875 C 459.5 313.63433 457.20942 311.375 454.375 311.375 L 402.25 311.375 z M 60.5625 371.375 C 57.97631 371.63607 55.96875 373.81148 55.96875 376.46875 L 55.96875 398.78125 C 55.96875 401.61567 58.22808 403.90625 61.0625 403.90625 L 139.90625 403.90625 L 139.90625 371.375 L 61.0625 371.375 C 60.88535 371.375 60.73491 371.3576 60.5625 371.375 z M 170.25 371.375 L 170.25 403.90625 L 271.90625 403.90625 L 271.90625 371.375 L 170.25 371.375 z M 302.25 371.375 L 302.25 403.90625 L 371.90625 403.90625 L 371.90625 371.375 L 302.25 371.375 z M 402.25 371.375 L 402.25 403.90625 L 454.375 403.90625 C 457.20942 403.90625 459.5 401.61567 459.5 398.78125 L 459.5 376.46875 C 459.5 373.63433 457.20942 371.375 454.375 371.375 L 402.25 371.375 z "
   id="path6" />
</svg>