<?xml version="1.0" encoding="UTF-8" standalone="no"?>
<svg
   xmlns:dc="http://purl.org/dc/elements/1.1/"
   xmlns:cc="http://creativecommons.org/ns#"
   xmlns:rdf="http://www.w3.org/1999/02/22-rdf-syntax-ns#"
   xmlns:svg="http://www.w3.org/2000/svg"
   xmlns="http://www.w3.org/2000/svg"
   xmlns:sodipodi="http://sodipodi.sourceforge.net/DTD/sodipodi-0.dtd"
   xmlns:inkscape="http://www.inkscape.org/namespaces/inkscape"
   version="1.1"
   x="0px"
   y="0px"
   width="512px"
   height="512px"
   viewBox="0 0 512 512"
   enable-background="new 0 0 512 512"
   xml:space="preserve"
   id="shape"
   inkscape:version="0.48.2 r9819"
   sodipodi:docname="screen-form.svg"><metadata
   id="metadata9"><rdf:RDF><cc:Work
       rdf:about=""><dc:format>image/svg+xml</dc:format><dc:type
         rdf:resource="http://purl.org/dc/dcmitype/StillImage" /><dc:title /></cc:Work></rdf:RDF></metadata><defs
   id="defs7" /><sodipodi:namedview
   pagecolor="#ffffff"
   bordercolor="#666666"
   borderopacity="1"
   objecttolerance="10"
   gridtolerance="10"
   guidetolerance="10"
   inkscape:pageopacity="0"
   inkscape:pageshadow="2"
   id="namedview5"
   showgrid="false"
   inkscape:zoom="0.92187499"
   inkscape:cx="210.60915"
   inkscape:cy="267.63097"
   inkscape:window-width="1354"
   inkscape:window-height="728"
   inkscape:window-x="1975"
   inkscape:window-y="202"
   inkscape:window-maximized="0"
   inkscape:current-layer="shape" />

    <path
   d="M 477.49699,20 37.433133,20 C 6.3926911,20.175067 6.2073531,19.601191 6,52.40756 l 0,61.89184 0,222.64088 0,28.82418 0,94.2994 c 0,31.2898 0.5200617,31.43313 31.433133,31.43313 l 440.063857,0 c 31.47816,0 31.43314,0.23339 31.43314,-31.43313 l 0,-345.76446 0,-61.89184 C 509.11462,19.999925 509.34638,20.261882 477.49699,20 z M 34.236544,461.1294 36.302969,86.719345 483.89018,87.66115 481.75911,462.19492 z"
   id="path6"
   inkscape:connector-curvature="0" />
    <path
   d="m 339.96832,365.81974 c 0,5.63331 4.56665,10.19911 10.19911,10.19911 h 11.31081 V 397.267 h -77.01689 v -21.24815 h 11.31082 c 5.63246,0 10.19911,-4.5658 10.19911,-10.19911 V 178.38217 c 0,-5.63246 -4.56665,-10.19911 -10.19911,-10.19911 h -11.31082 v -21.24815 h 77.01604 v 21.24815 h -11.31081 c -5.63246,0 -10.19911,4.56665 -10.19911,10.19911 V 365.81974 z M 280.4735,312.8974 H 115.82755 V 229.60466 H 280.4735 V 195.60762 H 81.83051 V 346.89444 H 280.4735 V 312.8974 z m 84.9926,-117.28978 v 33.99704 h 32.53686 V 312.8974 H 365.4661 v 33.99704 H 432 V 195.60762 h -66.5339 z"
   id="path8"
   inkscape:connector-curvature="0" />
</svg>