<?xml version="1.0" encoding="UTF-8" standalone="no"?>
<svg
   xmlns:dc="http://purl.org/dc/elements/1.1/"
   xmlns:cc="http://creativecommons.org/ns#"
   xmlns:rdf="http://www.w3.org/1999/02/22-rdf-syntax-ns#"
   xmlns:svg="http://www.w3.org/2000/svg"
   xmlns="http://www.w3.org/2000/svg"
   xmlns:sodipodi="http://sodipodi.sourceforge.net/DTD/sodipodi-0.dtd"
   xmlns:inkscape="http://www.inkscape.org/namespaces/inkscape"
   version="1.1"
   x="0px"
   y="0px"
   width="512px"
   height="512px"
   viewBox="0 0 512 512"
   enable-background="new 0 0 512 512"
   xml:space="preserve"
   id="shape"
   inkscape:version="0.48.2 r9819"
   sodipodi:docname="table.svg"><metadata
   id="metadata9"><rdf:RDF><cc:Work
       rdf:about=""><dc:format>image/svg+xml</dc:format><dc:type
         rdf:resource="http://purl.org/dc/dcmitype/StillImage" /><dc:title /></cc:Work></rdf:RDF></metadata><defs
   id="defs7" /><sodipodi:namedview
   pagecolor="#ffffff"
   bordercolor="#666666"
   borderopacity="1"
   objecttolerance="10"
   gridtolerance="10"
   guidetolerance="10"
   inkscape:pageopacity="0"
   inkscape:pageshadow="2"
   id="namedview5"
   showgrid="false"
   inkscape:zoom="0.92187499"
   inkscape:cx="210.60915"
   inkscape:cy="267.63097"
   inkscape:window-width="1354"
   inkscape:window-height="728"
   inkscape:window-x="1973"
   inkscape:window-y="202"
   inkscape:window-maximized="0"
   inkscape:current-layer="shape" />

  <g
   id="g4"
   transform="matrix(15.752542,0,0,15.752542,6,-3.505085)">
    <path
   d="M 31.966,3.896 C 31.878,2.866 31.046,2 30,2 L 2,2 C 0.954,2 0.122,2.866 0.034,3.896 L 0,3.896 0,4.062 0,8 0,22.166 0,24 0,30 c 0,1.104 0.896,2 2,2 l 28,0 c 1.104,0 2,-0.896 2,-2 l 0,-22 0,-3.938 0,-0.166 -0.034,0 z M 12,14 l 0,-6 8,0 0,6 -8,0 z m 8,2 0,6.166 -8,0 0,-6.166 8,0 z m -10,-8 0,6 -8,0 0,-6 8,0 z m -8,8 8,0 0,6.166 -8,0 L 2,16 z m 0,14 0,-6 8,0 0,6 -8,0 z m 10,0 0,-6 8,0 0,6 -8,0 z m 18,0 -8,0 0,-6 8,0 0,6 z m 0,-7.834 -8,0 0,-6.166 8,0 0,6.166 z M 30,14 l -8,0 0,-6 8,0 0,6 z"
   id="table"
   inkscape:connector-curvature="0" />
  </g>
</svg>