<?xml version="1.0" encoding="UTF-8" standalone="no"?>
<svg
   xmlns:dc="http://purl.org/dc/elements/1.1/"
   xmlns:cc="http://creativecommons.org/ns#"
   xmlns:rdf="http://www.w3.org/1999/02/22-rdf-syntax-ns#"
   xmlns:svg="http://www.w3.org/2000/svg"
   xmlns="http://www.w3.org/2000/svg"
   xmlns:sodipodi="http://sodipodi.sourceforge.net/DTD/sodipodi-0.dtd"
   xmlns:inkscape="http://www.inkscape.org/namespaces/inkscape"
   version="1.1"
   x="0px"
   y="0px"
   width="512px"
   height="512px"
   viewBox="0 0 512 512"
   enable-background="new 0 0 512 512"
   xml:space="preserve"
   id="shape"
   inkscape:version="0.48.2 r9819"
   sodipodi:docname="trash.svg"><metadata
   id="metadata9"><rdf:RDF><cc:Work
       rdf:about=""><dc:format>image/svg+xml</dc:format><dc:type
         rdf:resource="http://purl.org/dc/dcmitype/StillImage" /><dc:title /></cc:Work></rdf:RDF></metadata><defs
   id="defs7" /><sodipodi:namedview
   pagecolor="#ffffff"
   bordercolor="#666666"
   borderopacity="1"
   objecttolerance="10"
   gridtolerance="10"
   guidetolerance="10"
   inkscape:pageopacity="0"
   inkscape:pageshadow="2"
   id="namedview5"
   showgrid="false"
   inkscape:zoom="0.92187499"
   inkscape:cx="210.60915"
   inkscape:cy="267.63097"
   inkscape:window-width="1354"
   inkscape:window-height="728"
   inkscape:window-x="1973"
   inkscape:window-y="202"
   inkscape:window-maximized="0"
   inkscape:current-layer="shape" />

    <path
   d="m 424.562,78.022 v 40.032 H 87.438 V 78.022 h 94.938 c 15.464,0 28,-12.546 28,-28.022 h 91.25 c 0,15.477 12.536,28.022 28,28.022 h 94.936 z m -18.228,70.057 V 462 H 105.666 V 148.079 h 300.668 z m -209.001,62.383 c 0,-8.291 -6.716,-15.012 -15,-15.012 -8.284,0 -15,6.721 -15,15.012 v 190.153 c 0,8.291 6.716,15.012 15,15.012 8.284,0 15,-6.721 15,-15.012 V 210.462 z m 73.667,0 c 0,-8.291 -6.716,-15.012 -15,-15.012 -8.284,0 -15,6.721 -15,15.012 v 190.153 c 0,8.291 6.716,15.012 15,15.012 8.284,0 15,-6.721 15,-15.012 V 210.462 z m 73.667,0 c 0,-8.291 -6.716,-15.012 -15,-15.012 -8.284,0 -15,6.721 -15,15.012 v 190.153 c 0,8.291 6.716,15.012 15,15.012 8.284,0 15,-6.721 15,-15.012 V 210.462 z"
   id="shape"
   inkscape:connector-curvature="0" />
</svg>