<?xml version="1.0" encoding="UTF-8" standalone="no"?>
<svg
   xmlns:dc="http://purl.org/dc/elements/1.1/"
   xmlns:cc="http://creativecommons.org/ns#"
   xmlns:rdf="http://www.w3.org/1999/02/22-rdf-syntax-ns#"
   xmlns:svg="http://www.w3.org/2000/svg"
   xmlns="http://www.w3.org/2000/svg"
   xmlns:sodipodi="http://sodipodi.sourceforge.net/DTD/sodipodi-0.dtd"
   xmlns:inkscape="http://www.inkscape.org/namespaces/inkscape"
   version="1.1"
   x="0px"
   y="0px"
   width="512px"
   height="512px"
   viewBox="0 0 512 512"
   enable-background="new 0 0 512 512"
   xml:space="preserve"
   id="shape"
   inkscape:version="0.48.2 r9819"
   sodipodi:docname="connection.svg"><metadata
   id="metadata9"><rdf:RDF><cc:Work
       rdf:about=""><dc:format>image/svg+xml</dc:format><dc:type
         rdf:resource="http://purl.org/dc/dcmitype/StillImage" /><dc:title /></cc:Work></rdf:RDF></metadata><defs
   id="defs7" /><sodipodi:namedview
   pagecolor="#ffffff"
   bordercolor="#666666"
   borderopacity="1"
   objecttolerance="10"
   gridtolerance="10"
   guidetolerance="10"
   inkscape:pageopacity="0"
   inkscape:pageshadow="2"
   id="namedview5"
   showgrid="false"
   inkscape:zoom="0.92187499"
   inkscape:cx="210.60915"
   inkscape:cy="267.63097"
   inkscape:window-width="1354"
   inkscape:window-height="728"
   inkscape:window-x="1973"
   inkscape:window-y="202"
   inkscape:window-maximized="0"
   inkscape:current-layer="shape" />

    <path
   d="m 340.14861,18.730893 c -27.0309,6.379106 -47.44911,32.128591 -44.34533,62.219527 0.79134,7.676882 -2.15167,15.306662 -7.89744,20.45931 -6.25902,4.46928 -10.5369,8.25906 -68.86341,58.0091 -19.35356,15.90754 -28.50755,23.35528 -33.01155,26.96474 0.0218,0.0344 -0.17988,0.2636 -0.69529,0.76751 -0.76028,0.59388 -1.56112,1.15379 -2.35805,1.67314 0.51262,-0.39384 1.58031,-1.26018 3.05334,-2.44065 -0.0749,-0.11876 -2.53601,1.88924 -3.47842,2.70345 0.10425,-0.0656 0.19689,-0.13486 0.30063,-0.20181 -0.60641,0.46248 -0.71518,0.55996 -0.30063,0.20181 -5.47709,3.44426 -11.72542,5.02109 -18.05009,3.20705 -3.99546,-1.03044 -8.51064,-1.50452 -13.23957,-1.46578 -0.0782,6.4e-4 -0.15875,0.0155 -0.23716,0.0163 -3.76695,-0.0782 -7.62157,0.18722 -11.53356,0.8852 -2.14773,0.3832 -4.26484,0.91745 -6.30959,1.52129 -0.19736,0.0508 -0.38806,0.10725 -0.5847,0.15942 -8.06716,2.14203 -15.50704,5.53821 -20.73655,9.93523 -13.993633,11.54488 -22.726075,29.55464 -20.811425,49.93276 1.548448,16.48088 9.903585,30.67226 21.988885,40.12621 0.22384,0.18266 0.44015,0.36574 0.66661,0.54499 0.0956,0.0725 0.19029,0.14186 0.28636,0.21378 11.69414,9.13914 26.79367,13.73312 42.31723,11.88608 6.87661,-0.81782 13.77534,1.3792 18.90341,5.92687 -2.01925,-2.23717 -0.19595,-0.86038 33.8043,33.16457 54.87507,55.66882 58.93577,59.4812 65.06855,65.22224 5.613,5.30301 8.29834,12.98854 7.3032,20.64624 -3.87383,29.79697 16.12466,58.36583 46.61869,64.1488 31.36867,5.94881 61.59018,-14.66863 67.53902,-46.03738 7.62722,-40.21891 -27.7535,-75.02382 -67.39443,-67.57817 -7.585,1.42416 -15.44574,-0.88888 -21.05638,-6.18837 -4.9721,-5.86756 -9.09279,-9.83097 -63.50067,-63.83864 -17.51359,-18.03037 -25.71885,-26.5427 -29.67053,-30.71398 0.46095,0.23259 -2.12309,-2.4647 -2.9712,-3.28365 0.0718,0.0962 0.12885,0.20511 0.20181,0.30062 0.3836,0.42776 1.30874,1.45727 2.72949,2.95719 -0.1213,-0.0797 -0.34328,-0.25622 -0.70651,-0.57084 -0.71339,-0.7719 -1.39468,-1.56395 -2.02298,-2.38635 -0.40069,-0.44682 -0.49821,-0.58684 -0.20181,-0.30062 -3.84558,-5.15533 -5.90974,-11.22363 -4.63243,-17.64213 0.82252,-4.80541 0.80099,-10.27597 0.0722,-15.89802 0.29886,-6.37818 3.12517,-12.39344 7.84191,-16.70025 -2.84107,2.21783 -3.07115,1.98093 35.46194,-30.61718 60.02062,-50.07811 64.15175,-53.79725 70.38078,-59.4337 5.7495,-5.15471 13.60836,-7.1818 21.15739,-5.55611 29.37398,6.32731 59.54061,-11.23819 67.82819,-41.148797 8.52531,-30.7685 -9.54064,-62.610805 -40.30923,-71.136124 -9.86236,-2.732652 -19.59468,-2.781284 -28.60498,-0.654915 z M 214.23452,227.27771 c 1.49109,-1.16398 3.68105,-2.9615 1.39516,-1.19218 -0.4854,0.37926 -0.94398,0.78022 -1.39516,1.19218 z m -38.92834,84.81618 c 1.2437,1.36731 3.67988,3.81531 1.60304,1.54796 -0.50736,-0.54882 -1.05228,-1.05347 -1.60304,-1.54796 z"
   id="shape"
   inkscape:connector-curvature="0" />
</svg>