<?xml version="1.0" encoding="UTF-8" standalone="no"?>
<svg
   xmlns:dc="http://purl.org/dc/elements/1.1/"
   xmlns:cc="http://creativecommons.org/ns#"
   xmlns:rdf="http://www.w3.org/1999/02/22-rdf-syntax-ns#"
   xmlns:svg="http://www.w3.org/2000/svg"
   xmlns="http://www.w3.org/2000/svg"
   xmlns:sodipodi="http://sodipodi.sourceforge.net/DTD/sodipodi-0.dtd"
   xmlns:inkscape="http://www.inkscape.org/namespaces/inkscape"
   version="1.1"
   x="0px"
   y="0px"
   width="512px"
   height="512px"
   viewBox="0 0 512 512"
   enable-background="new 0 0 512 512"
   xml:space="preserve"
   id="shape"
   inkscape:version="0.48.2 r9819"
   sodipodi:docname="form.svg"><metadata
   id="metadata9"><rdf:RDF><cc:Work
       rdf:about=""><dc:format>image/svg+xml</dc:format><dc:type
         rdf:resource="http://purl.org/dc/dcmitype/StillImage" /><dc:title /></cc:Work></rdf:RDF></metadata><defs
   id="defs7" /><sodipodi:namedview
   pagecolor="#ffffff"
   bordercolor="#666666"
   borderopacity="1"
   objecttolerance="10"
   gridtolerance="10"
   guidetolerance="10"
   inkscape:pageopacity="0"
   inkscape:pageshadow="2"
   id="namedview5"
   showgrid="false"
   inkscape:zoom="0.92187499"
   inkscape:cx="210.60915"
   inkscape:cy="267.63097"
   inkscape:window-width="1354"
   inkscape:window-height="728"
   inkscape:window-x="1973"
   inkscape:window-y="202"
   inkscape:window-maximized="0"
   inkscape:current-layer="shape" />

    <path
   d="M 39.147181,24 C 8,24 8,24 8,55.147181 l 0,62.294359 0,218.03027 0,31.14718 0,93.44155 c 0,31.14718 0,31.14718 31.147181,31.14718 l 436.060539,0 c 31.14718,0 31.14718,0 31.14718,-31.14718 l 0,-342.619 0,-62.294359 C 506.3549,24 506.3549,24 475.20772,24 L 39.147181,24 z m 0,93.44154 124.588729,0 0,62.29437 -124.588729,0 0,-62.29437 z m 155.735909,0 124.58872,0 0,62.29437 -124.58872,0 0,-62.29437 z m 155.7359,0 124.58873,0 0,62.29437 -124.58873,0 0,-62.29437 z m -311.471809,93.44155 124.588729,0 0,62.29436 -124.588729,0 0,-62.29436 z m 155.735909,0 124.58872,0 0,62.29436 -124.58872,0 0,-62.29436 z m 155.7359,0 124.58873,0 0,62.29436 -124.58873,0 0,-62.29436 z m -311.471809,93.44154 124.588729,0 0,62.29436 -124.588729,0 0,-62.29436 z m 155.735909,0 124.58872,0 0,62.29436 -124.58872,0 0,-62.29436 z m 155.7359,0 124.58873,0 0,62.29436 -124.58873,0 0,-62.29436 z m -311.471809,93.44154 124.588729,0 0,62.29437 -124.588729,0 0,-62.29437 z m 155.735909,0 124.58872,0 0,62.29437 -124.58872,0 0,-62.29437 z m 155.7359,0 124.58873,0 0,62.29437 -124.58873,0 0,-62.29437 z"
   id="shape"
   inkscape:connector-curvature="0" />
</svg>