<?xml version="1.0" encoding="UTF-8" standalone="no"?>
<svg
   xmlns:dc="http://purl.org/dc/elements/1.1/"
   xmlns:cc="http://creativecommons.org/ns#"
   xmlns:rdf="http://www.w3.org/1999/02/22-rdf-syntax-ns#"
   xmlns:svg="http://www.w3.org/2000/svg"
   xmlns="http://www.w3.org/2000/svg"
   xmlns:sodipodi="http://sodipodi.sourceforge.net/DTD/sodipodi-0.dtd"
   xmlns:inkscape="http://www.inkscape.org/namespaces/inkscape"
   version="1.1"
   x="0px"
   y="0px"
   width="512px"
   height="512px"
   viewBox="0 0 512 512"
   enable-background="new 0 0 512 512"
   xml:space="preserve"
   id="shape"
   inkscape:version="0.48.2 r9819"
   sodipodi:docname="magnifier.svg"><metadata
   id="metadata9"><rdf:RDF><cc:Work
       rdf:about=""><dc:format>image/svg+xml</dc:format><dc:type
         rdf:resource="http://purl.org/dc/dcmitype/StillImage" /><dc:title /></cc:Work></rdf:RDF></metadata><defs
   id="defs7" /><sodipodi:namedview
   pagecolor="#ffffff"
   bordercolor="#666666"
   borderopacity="1"
   objecttolerance="10"
   gridtolerance="10"
   guidetolerance="10"
   inkscape:pageopacity="0"
   inkscape:pageshadow="2"
   id="namedview5"
   showgrid="false"
   inkscape:zoom="0.92187499"
   inkscape:cx="210.60915"
   inkscape:cy="267.63097"
   inkscape:window-width="1354"
   inkscape:window-height="728"
   inkscape:window-x="1973"
   inkscape:window-y="202"
   inkscape:window-maximized="0"
   inkscape:current-layer="shape" />

    <path
   d="m 450.225,394.243 -85.387,-85.385 c 16.55,-26.081 26.146,-56.986 26.146,-90.094 0,-92.989 -75.652,-168.641 -168.643,-168.641 -92.989,0 -168.641,75.652 -168.641,168.641 0,92.989 75.651,168.641 168.641,168.641 31.465,0 60.939,-8.67 86.175,-23.735 l 86.14,86.142 c 36.755,36.754 92.355,-18.783 55.569,-55.569 z M 105.992,218.764 c 0,-64.156 52.192,-116.352 116.35,-116.352 64.158,0 116.353,52.195 116.353,116.352 0,64.157 -52.195,116.352 -116.353,116.352 -64.158,0 -116.35,-52.196 -116.35,-116.352 z m 34.463,-30.26 c 34.057,-78.9 148.668,-69.752 170.248,12.862 -43.482,-51.037 -119.984,-56.532 -170.248,-12.862 z"
   id="shape"
   inkscape:connector-curvature="0" />
</svg>