<?xml version="1.0" encoding="UTF-8" standalone="no"?>
<svg
   xmlns:dc="http://purl.org/dc/elements/1.1/"
   xmlns:cc="http://creativecommons.org/ns#"
   xmlns:rdf="http://www.w3.org/1999/02/22-rdf-syntax-ns#"
   xmlns:svg="http://www.w3.org/2000/svg"
   xmlns="http://www.w3.org/2000/svg"
   xmlns:sodipodi="http://sodipodi.sourceforge.net/DTD/sodipodi-0.dtd"
   xmlns:inkscape="http://www.inkscape.org/namespaces/inkscape"
   version="1.1"
   x="0px"
   y="0px"
   width="512px"
   height="512px"
   viewBox="0 0 512 512"
   enable-background="new 0 0 512 512"
   xml:space="preserve"
   id="shape"
   inkscape:version="0.48.2 r9819"
   sodipodi:docname="menu.svg"><metadata
   id="metadata9"><rdf:RDF><cc:Work
       rdf:about=""><dc:format>image/svg+xml</dc:format><dc:type
         rdf:resource="http://purl.org/dc/dcmitype/StillImage" /><dc:title /></cc:Work></rdf:RDF></metadata><defs
   id="defs7" /><sodipodi:namedview
   pagecolor="#ffffff"
   bordercolor="#666666"
   borderopacity="1"
   objecttolerance="10"
   gridtolerance="10"
   guidetolerance="10"
   inkscape:pageopacity="0"
   inkscape:pageshadow="2"
   id="namedview5"
   showgrid="false"
   inkscape:zoom="0.92187499"
   inkscape:cx="210.60915"
   inkscape:cy="267.63097"
   inkscape:window-width="1354"
   inkscape:window-height="728"
   inkscape:window-x="1973"
   inkscape:window-y="202"
   inkscape:window-maximized="0"
   inkscape:current-layer="shape" />

    <path
   d="M 97.327486,9.4689225 C 79.652487,9.5888126 79.65625,11.524586 79.65625,42.216547 l 0,65.462403 0,229.16768 0,32.74762 0,98.21003 c 0,32.73809 0.03059,32.74763 21.48139,32.74763 l 300.31247,0 c 21.4508,0 21.4157,-0.009 21.4157,-32.74763 l 0,-360.12533 0,-65.462403 c 0,-32.7380923 0.0346,-32.7476245 -21.4157,-32.7476245 l -300.31247,0 c -1.34068,0 -2.63181,-0.00799 -3.810154,0 z M 409.36604,47.767549 409.6945,150.4775 l -316.111477,0 0,-100.673489 315.783017,-2.036462 z m -283.16678,42.075935 0,35.473856 220.9233,0 0,-35.473856 -220.9233,0 z m 1.64231,100.804876 241.8463,0 0,35.47385 -241.8463,0 0,-35.47385 z m -34.258547,77.54979 316.505627,0 0.68977,202.4309 -317.195397,-3.71161 0,-198.71929 z m 36.360707,27.32801 0,35.47385 175.72697,0 0,-35.47385 -175.72697,0 z m -2.75908,83.00225 0,35.47386 206.40529,0 0,-35.47386 -206.40529,0 z"
   id="shape"
   inkscape:connector-curvature="0" />
</svg>